<?xml version="1.0" encoding="UTF-8"?>
<svg width="281px" height="597px" viewBox="0 0 281 597" version="1.1" xmlns="http://www.w3.org/2000/svg" xmlns:xlink="http://www.w3.org/1999/xlink">
    <!-- Generator: Sketch 51.2 (57519) - http://www.bohemiancoding.com/sketch -->
    <title>Group 2</title>
    <desc>Created with Sketch.</desc>
    <defs>
        <linearGradient x1="37.053%" y1="-38.735%" x2="33.786%" y2="95.07%" id="linearGradient-1">
            <stop stop-color="#2D1F98" offset="0%"></stop>
            <stop stop-color="#E64C4C" offset="100%"></stop>
        </linearGradient>
        <linearGradient x1="37.053%" y1="-38.735%" x2="33.786%" y2="95.07%" id="linearGradient-2">
            <stop stop-color="#E0C79B" offset="0%"></stop>
            <stop stop-color="#E0C79B" offset="100%"></stop>
        </linearGradient>
        <linearGradient x1="37.053%" y1="-38.735%" x2="33.7957373%" y2="94.6711954%" id="linearGradient-3">
            <stop stop-color="#E0C79B" offset="0%"></stop>
            <stop stop-color="#E0C79B" offset="100%"></stop>
        </linearGradient>
    </defs>
    <g id="User-Persona" stroke="none" stroke-width="1" fill="none" fill-rule="evenodd">
        <g id="Group-2" transform="translate(-109.000000, -124.000000)">
            <rect id="Rectangle" fill="#2B2D2D" x="112" y="124" width="273" height="595"></rect>
            <g id="e-link" opacity="0.35" transform="translate(184.396048, 662.538734) scale(-1, 1) rotate(141.000000) translate(-184.396048, -662.538734) translate(19.396048, 573.538734)" fill="url(#linearGradient-2)" fill-rule="nonzero">
                <path d="M0.128807339,177.015555 L143.594626,0.357793548 L329.497353,150.467987 C241.890983,141.838129 143.064063,145.959381 0.128807339,177.015555 Z" id="e"></path>
            </g>
            <g id="f-link" opacity="0.35" transform="translate(215.320936, 684.420071) scale(-1, 1) rotate(141.000000) translate(-215.320936, -684.420071) translate(58.320936, 591.420071)" fill="url(#linearGradient-3)" fill-rule="nonzero">
                <path d="M313.901442,175.808129 C303.062202,177.575181 293.108257,179.308594 282.648283,180.882477 C148.295072,201.094755 91.2109305,144.060832 0.437536042,118.790006 L96.6162385,0.357793548 L313.901442,175.808129 Z" id="f"></path>
            </g>
            <g id="g-link" opacity="0.35" transform="translate(181.955261, 678.641588) scale(-1, 1) rotate(141.000000) translate(-181.955261, -678.641588) translate(30.955261, 602.641588)" fill="url(#linearGradient-2)" fill-rule="nonzero">
                <path d="M301.347837,144.374794 C191.516068,84.6339742 97.813329,117.616219 0.434469201,151.26971 L123.05599,0.410290323 C244.565269,97.8274839 303.995544,145.815142 301.347837,144.374794 Z" id="g"></path>
            </g>
            <path d="M451.212196,210.988069 C413.681081,202.77738 389.268152,158.328782 315.137264,180.399384 C235.330854,204.159729 193.007421,256.016329 147.757627,236.684849 L343.598409,78.09611 L451.212196,210.988069 Z" id="c" fill="url(#linearGradient-2)" fill-rule="nonzero" opacity="0.35" transform="translate(299.484911, 159.505298) rotate(39.000000) translate(-299.484911, -159.505298) "></path>
            <path d="M446.782752,238.585827 C391.634913,235.633563 320.34446,315.238345 255.535077,302.738591 C214.17035,294.760596 183.034416,217.974777 145.209773,226.086276 L321.233334,83.5452079 L446.782752,238.585827 Z" id="g" fill="url(#linearGradient-2)" fill-rule="nonzero" opacity="0.35" transform="translate(295.996263, 193.808359) rotate(39.000000) translate(-295.996263, -193.808359) "></path>
            <path d="M488.338051,265.923806 C391.687988,297.845824 390.789858,250.385553 319.423173,278.089901 C270.426043,297.110451 239.446039,244.34219 186.248681,259.04903 L312.868074,113.390081 L488.338051,265.923806 Z" id="f" fill="url(#linearGradient-2)" fill-rule="nonzero" opacity="0.349999994" transform="translate(337.293366, 197.834574) rotate(49.000000) translate(-337.293366, -197.834574) "></path>
            <path d="M158.111111,369.10536 C156.511504,370.036973 155.218223,370.839183 154.231231,371.512015 C153.244239,372.184846 152.240245,373.073315 151.219219,374.177449 C150.266262,375.212574 149.534537,376.29944 149.024024,377.438078 C148.513511,378.576715 148.156157,380.043121 147.951952,381.837338 L150.402402,381.837338 C152.512523,381.837338 154.171666,382.363519 155.37988,383.415896 C156.588094,384.468274 157.192192,386.012313 157.192192,388.048059 C157.192192,389.497235 156.656162,390.851503 155.584084,392.110906 C154.512007,393.370308 153.040049,394 151.168168,394 C148.241227,394 146.148154,393.025272 144.888889,391.075786 C143.629623,389.1263 143,386.564403 143,383.390018 C143,381.147247 143.476472,379.102905 144.429429,377.256932 C145.382387,375.410958 146.539533,373.763408 147.900901,372.314233 C149.296303,370.830553 150.776769,369.57117 152.342342,368.536044 C153.907916,367.500919 155.218213,366.655579 156.273273,366 L158.111111,369.10536 Z M177,369.10536 C175.400392,370.036973 174.107112,370.839183 173.12012,371.512015 C172.133128,372.184846 171.129134,373.073315 170.108108,374.177449 C169.121116,375.247079 168.380883,376.34257 167.887387,377.463956 C167.393891,378.585341 167.045046,380.043121 166.840841,381.837338 L169.291291,381.837338 C171.401412,381.837338 173.060555,382.363519 174.268769,383.415896 C175.476983,384.468274 176.081081,386.012313 176.081081,388.048059 C176.081081,389.497235 175.54505,390.851503 174.472973,392.110906 C173.400896,393.370308 171.928938,394 170.057057,394 C167.130115,394 165.037043,393.025272 163.777778,391.075786 C162.518512,389.1263 161.888889,386.564403 161.888889,383.390018 C161.888889,381.147247 162.365361,379.102905 163.318318,377.256932 C164.271276,375.410958 165.428422,373.763408 166.78979,372.314233 C168.185192,370.830553 169.665658,369.57117 171.231231,368.536044 C172.796805,367.500919 174.107102,366.655579 175.162162,366 L177,369.10536 Z" id="“" fill-opacity="0.3" fill="#FD9800"></path>
        </g>
    </g>
</svg>