
<svg width="273px" height="595px" viewBox="0 0 273 595" version="1.1" xmlns="http://www.w3.org/2000/svg" xmlns:xlink="http://www.w3.org/1999/xlink">
    <!-- Generator: Sketch 51.2 (57519) - http://www.bohemiancoding.com/sketch -->
    <desc>Created with Sketch.</desc>
    <defs>
        <polygon id="path-1" points="0.151060559 1.42108547e-14 272.941254 2.45985311e-13 273 237 -2.84217094e-14 237"></polygon>
        <linearGradient x1="37.053%" y1="-38.735%" x2="33.786%" y2="95.07%" id="linearGradient-3">
            <stop stop-color="#2D1F98" offset="0%"></stop>
            <stop stop-color="#E64C4C" offset="100%"></stop>
        </linearGradient>
        <linearGradient x1="37.053%" y1="-38.735%" x2="33.8889967%" y2="90.8516108%" id="linearGradient-4">
            <stop stop-color="#E0C79B" offset="0%"></stop>
            <stop stop-color="#E0C79B" offset="100%"></stop>
        </linearGradient>
        <linearGradient x1="37.053%" y1="-38.735%" x2="33.786%" y2="95.07%" id="linearGradient-5">
            <stop stop-color="#E0C79B" offset="0%"></stop>
            <stop stop-color="#E0C79B" offset="100%"></stop>
        </linearGradient>
        <linearGradient x1="37.053%" y1="-38.735%" x2="33.7957373%" y2="94.6711954%" id="linearGradient-6">
            <stop stop-color="#E0C79B" offset="0%"></stop>
            <stop stop-color="#E0C79B" offset="100%"></stop>
        </linearGradient>
        <polygon id="path-7" points="0 0 273 2.53711165e-13 273 273 0 272.999999"></polygon>
    </defs>
    <g id="User-Persona" stroke="none" stroke-width="1" fill="none" fill-rule="evenodd">
        <g id="Group-3">
            <g id="Group-2">
                <rect id="Rectangle" fill="#2B2D2D" x="0" y="0" width="273" height="595"></rect>
                <g id="Down" opacity="0.5" transform="translate(0.000000, 358.000000)">
                    <mask id="mask-2" fill="white">
                        <use xlink:href="#path-1"></use>
                    </mask>
                    <g id="a" transform="translate(136.500000, 118.500000) rotate(180.000000) translate(-136.500000, -118.500000) "></g>
                    <g id="Group" mask="url(#mask-2)" opacity="0.35">
                        <g transform="translate(133.460653, 192.101819) rotate(219.000000) translate(-133.460653, -192.101819) translate(-86.039347, 73.101819)">
                            <g id="c-link" transform="translate(203.251507, 119.000000) scale(-1, 1) translate(-203.251507, -119.000000) translate(0.751507, 0.000000)">
                                <path d="M404.025688,237.071355 C299.039017,239.82871 180.250026,160.348594 0.214678899,136.613935 L110.869384,0.357793548 L404.025688,237.071355 Z" id="c" fill="url(#linearGradient-4)" fill-rule="nonzero"></path>
                            </g>
                            <g id="e-link" transform="translate(273.476239, 89.000000) scale(-1, 1) translate(-273.476239, -89.000000) translate(108.476239, 0.000000)">
                                <path d="M0.128807339,177.015555 L143.594626,0.357793548 L329.497353,150.467987 C241.890983,141.838129 143.064063,145.959381 0.128807339,177.015555 Z" id="e" fill="url(#linearGradient-5)" fill-rule="nonzero"></path>
                            </g>
                            <g id="f-link" transform="translate(234.498873, 93.000000) scale(-1, 1) translate(-234.498873, -93.000000) translate(77.498873, 0.000000)">
                                <path d="M313.901442,175.808129 C303.062202,177.575181 293.108257,179.308594 282.648283,180.882477 C148.295072,201.094755 91.2109305,144.060832 0.437536042,118.790006 L96.6162385,0.357793548 L313.901442,175.808129 Z" id="f" fill="url(#linearGradient-6)" fill-rule="nonzero"></path>
                            </g>
                            <g id="g-link" transform="translate(266.873198, 76.000000) scale(-1, 1) translate(-266.873198, -76.000000) translate(115.873198, 0.000000)">
                                <path d="M301.347837,144.374794 C191.516068,84.6339742 97.813329,117.616219 0.434469201,151.26971 L123.05599,0.410290323 C244.565269,97.8274839 303.995544,145.815142 301.347837,144.374794 Z" id="g" fill="url(#linearGradient-5)" fill-rule="nonzero"></path>
                            </g>
                        </g>
                    </g>
                </g>
                <mask id="mask-8" fill="white">
                    <use xlink:href="#path-7"></use>
                </mask>
                <g id="a"></g>
                <path d="M339.212196,86.9880694 C301.681081,78.77738 277.268152,34.3287815 203.137264,56.3993836 C123.330854,80.1597294 81.0074208,132.016329 35.7576267,112.684849 L231.598409,-45.90389 L339.212196,86.9880694 Z" id="c" fill="url(#linearGradient-5)" fill-rule="nonzero" opacity="0.35" mask="url(#mask-8)" transform="translate(187.484911, 35.505298) rotate(39.000000) translate(-187.484911, -35.505298) "></path>
                <path d="M334.782752,114.585827 C279.634913,111.633563 208.34446,191.238345 143.535077,178.738591 C102.17035,170.760596 71.0344159,93.9747773 33.2097734,102.086276 L209.233334,-40.4547921 L334.782752,114.585827 Z" id="g" fill="url(#linearGradient-5)" fill-rule="nonzero" opacity="0.35" mask="url(#mask-8)" transform="translate(183.996263, 69.808359) rotate(39.000000) translate(-183.996263, -69.808359) "></path>
                <path d="M376.338051,141.923806 C279.687988,173.845824 278.789858,126.385553 207.423173,154.089901 C158.426043,173.110451 127.446039,120.34219 74.248681,135.04903 L200.868074,-10.6099186 L376.338051,141.923806 Z" id="f" fill="url(#linearGradient-5)" fill-rule="nonzero" opacity="0.349999994" mask="url(#mask-8)" transform="translate(225.293366, 73.834574) rotate(49.000000) translate(-225.293366, -73.834574) "></path>
                <path d="M287.272216,200.936416 C233.674322,200.821721 189.463654,167.548766 130.459609,120.109091 C103.694353,98.5896327 39.6096344,145.451178 10.4327215,132.378817 L222.593569,-39.42565 L392.824735,170.792333 C354.681219,190.957346 319.497046,201.005374 287.272216,200.936416 Z" id="e" fill="url(#linearGradient-5)" fill-rule="nonzero" opacity="0.350000024" mask="url(#mask-8)" transform="translate(201.628728, 80.755559) rotate(-321.000000) translate(-201.628728, -80.755559) "></path>
            </g>
            <path d="M46.1111111,245.10536 C44.5115035,246.036973 43.2182232,246.839183 42.2312312,247.512015 C41.2442393,248.184846 40.2402453,249.073315 39.2192192,250.177449 C38.2662615,251.212574 37.5345371,252.29944 37.024024,253.438078 C36.513511,254.576715 36.1561572,256.043121 35.951952,257.837338 L38.4024024,257.837338 C40.5125231,257.837338 42.1716656,258.363519 43.3798799,259.415896 C44.5880941,260.468274 45.1921922,262.012313 45.1921922,264.048059 C45.1921922,265.497235 44.6561615,266.851503 43.5840841,268.110906 C42.5120067,269.370308 41.0400494,270 39.1681682,270 C36.2412266,270 34.1481544,269.025272 32.8888889,267.075786 C31.6296233,265.1263 31,262.564403 31,259.390018 C31,257.147247 31.4764717,255.102905 32.4294294,253.256932 C33.3823871,251.410958 34.5395327,249.763408 35.9009009,248.314233 C37.2963033,246.830553 38.7767689,245.57117 40.3423423,244.536044 C41.9079157,243.500919 43.2182129,242.655579 44.2732733,242 L46.1111111,245.10536 Z M65,245.10536 C63.4003924,246.036973 62.107112,246.839183 61.1201201,247.512015 C60.1331282,248.184846 59.1291342,249.073315 58.1081081,250.177449 C57.1211162,251.247079 56.3808833,252.34257 55.8873874,253.463956 C55.3938914,254.585341 55.0450461,256.043121 54.8408408,257.837338 L57.2912913,257.837338 C59.401412,257.837338 61.0605545,258.363519 62.2687688,259.415896 C63.476983,260.468274 64.0810811,262.012313 64.0810811,264.048059 C64.0810811,265.497235 63.5450504,266.851503 62.472973,268.110906 C61.4008955,269.370308 59.9289383,270 58.0570571,270 C55.1301155,270 53.0370433,269.025272 51.7777778,267.075786 C50.5185122,265.1263 49.8888889,262.564403 49.8888889,259.390018 C49.8888889,257.147247 50.3653606,255.102905 51.3183183,253.256932 C52.271276,251.410958 53.4284216,249.763408 54.7897898,248.314233 C56.1851922,246.830553 57.6656578,245.57117 59.2312312,244.536044 C60.7968046,243.500919 62.1071018,242.655579 63.1621622,242 L65,245.10536 Z" id="“" fill-opacity="0.3" fill="#FD9800"></path>
        </g>
    </g>
</svg>