<?xml version="1.0" encoding="utf-8"?>
<!-- Generator: Adobe Illustrator 19.2.1, SVG Export Plug-In . SVG Version: 6.00 Build 0)  -->
<!DOCTYPE svg PUBLIC "-//W3C//DTD SVG 1.1//EN" "http://www.w3.org/Graphics/SVG/1.1/DTD/svg11.dtd">
<svg version="1.1" id="Layer_1" xmlns="http://www.w3.org/2000/svg" xmlns:xlink="http://www.w3.org/1999/xlink" x="0px" y="0px"
	 width="154px" height="41px" viewBox="0 0 154 41" style="enable-background:new 0 0 154 41;" xml:space="preserve">
<style type="text/css">
	.st0{fill:#7DBE42;}
	.st1{fill:#FDDB31;}
	.st2{fill:#7CA540;}
	.st3{fill:#47C2CC;}
	.st4{fill:#239346;}
	.st5{fill:#25803F;}
	.st6{fill:#3D4954;}
</style>
<g>
	<g id="XMLID_39_">
		<path id="XMLID_45_" class="st0" d="M24.468,40.022L24.468,40.022l0.002,0.001C24.469,40.023,24.468,40.023,24.468,40.022
			 M12.287,7.627C10.01,7.627,8,8.195,6.54,9.392c-3.525,2.89-3.068,7.912-0.162,13.47c1.576-0.372,3.376-0.548,5.319-0.549
			c1.485,0,3.053,0.103,4.67,0.302c-0.046-0.326-0.09-0.654-0.131-0.985c-0.628-5.045-0.56-9.717,0.328-13.418
			C15.083,7.827,13.638,7.627,12.287,7.627"/>
		<path id="XMLID_44_" class="st1" d="M24.749,0c-0.299,0-0.596,0.018-0.889,0.055c-3.843,0.481-6.198,3.576-7.296,8.158
			c4.546,1.185,9.43,4.128,12.958,8.451c6.615,8.104,5.96,17.988,0.973,22.076c-1.246,1.022-2.666,1.49-4.196,1.49
			c-0.594,0-1.205-0.07-1.829-0.206C25.557,40.657,26.743,41,28.022,41c0.304,0,0.613-0.019,0.928-0.059
			c6.948-0.869,13.257-9.581,11.852-20.871C39.456,9.256,31.521-0.001,24.749,0"/>
		<path id="XMLID_43_" class="st2" d="M16.564,8.213c-0.888,3.701-0.956,8.373-0.328,13.418c0.041,0.331,0.085,0.658,0.131,0.985
			c0.315,0.039,0.632,0.081,0.95,0.127c8.837,1.274,15.533,4.81,14.749,10.271c-0.467,3.252-3.42,5.771-7.598,7.008
			c0,0,0.001,0.001,0.002,0.001c0.624,0.136,1.235,0.206,1.829,0.206c1.53,0,2.949-0.468,4.196-1.49
			c4.987-4.088,5.642-13.972-0.973-22.076C25.993,12.341,21.11,9.398,16.564,8.213"/>
		<path id="XMLID_42_" class="st3" d="M6.378,22.862c-3.496,0.824-5.893,2.607-6.314,5.539c-0.784,5.462,5.745,10.922,14.582,12.195
			c1.255,0.181,2.489,0.268,3.685,0.268c2.211,0,4.292-0.296,6.135-0.842c-4.2-0.915-8.998-4.79-13.317-10.081
			C9.21,27.565,7.583,25.168,6.378,22.862"/>
		<path id="XMLID_41_" class="st4" d="M11.697,22.314c-1.944,0-3.743,0.177-5.319,0.549c1.206,2.306,2.833,4.703,4.772,7.079
			c4.319,5.291,9.117,9.166,13.317,10.081l0.001,0c-4.192-2.445-6.941-9.22-8.101-17.407C14.749,22.417,13.182,22.314,11.697,22.314
			"/>
		<path id="XMLID_40_" class="st5" d="M16.367,22.616c1.16,8.187,3.908,14.962,8.101,17.407c4.178-1.238,7.132-3.757,7.598-7.008
			c0.784-5.462-5.912-8.998-14.749-10.271C16.999,22.697,16.682,22.654,16.367,22.616"/>
	</g>
	<g id="XMLID_30_">
		<path id="XMLID_36_" class="st0" d="M24.468,40.022L24.468,40.022l0.002,0.001C24.469,40.023,24.468,40.023,24.468,40.022
			 M12.287,7.627C10.01,7.627,8,8.195,6.54,9.392c-3.525,2.89-3.068,7.912-0.162,13.47c1.576-0.372,3.376-0.548,5.319-0.549
			c1.485,0,3.053,0.103,4.67,0.302c-0.046-0.326-0.09-0.654-0.131-0.985c-0.628-5.045-0.56-9.717,0.328-13.418
			C15.083,7.827,13.638,7.627,12.287,7.627"/>
		<path id="XMLID_35_" class="st1" d="M24.749,0c-0.299,0-0.596,0.018-0.889,0.055c-3.843,0.481-6.198,3.576-7.296,8.158
			c4.546,1.185,9.43,4.128,12.958,8.451c6.615,8.104,5.96,17.988,0.973,22.076c-1.246,1.022-2.666,1.49-4.196,1.49
			c-0.594,0-1.205-0.07-1.829-0.206C25.557,40.657,26.743,41,28.022,41c0.304,0,0.613-0.019,0.928-0.059
			c6.948-0.869,13.257-9.581,11.852-20.871C39.456,9.256,31.521-0.001,24.749,0"/>
		<path id="XMLID_34_" class="st2" d="M16.564,8.213c-0.888,3.701-0.956,8.373-0.328,13.418c0.041,0.331,0.085,0.658,0.131,0.985
			c0.315,0.039,0.632,0.081,0.95,0.127c8.837,1.274,15.533,4.81,14.749,10.271c-0.467,3.252-3.42,5.771-7.598,7.008
			c0,0,0.001,0.001,0.002,0.001c0.624,0.136,1.235,0.206,1.829,0.206c1.53,0,2.949-0.468,4.196-1.49
			c4.987-4.088,5.642-13.972-0.973-22.076C25.993,12.341,21.11,9.398,16.564,8.213"/>
		<path id="XMLID_33_" class="st3" d="M6.378,22.862c-3.496,0.824-5.893,2.607-6.314,5.539c-0.784,5.462,5.745,10.922,14.582,12.195
			c1.255,0.181,2.489,0.268,3.685,0.268c2.211,0,4.292-0.296,6.135-0.842c-4.2-0.915-8.998-4.79-13.317-10.081
			C9.21,27.565,7.583,25.168,6.378,22.862"/>
		<path id="XMLID_32_" class="st4" d="M11.697,22.314c-1.944,0-3.743,0.177-5.319,0.549c1.206,2.306,2.833,4.703,4.772,7.079
			c4.319,5.291,9.117,9.166,13.317,10.081l0.001,0c-4.192-2.445-6.941-9.22-8.101-17.407C14.749,22.417,13.182,22.314,11.697,22.314
			"/>
		<path id="XMLID_31_" class="st5" d="M16.367,22.616c1.16,8.187,3.908,14.962,8.101,17.407c4.178-1.238,7.132-3.757,7.598-7.008
			c0.784-5.462-5.912-8.998-14.749-10.271C16.999,22.697,16.682,22.654,16.367,22.616"/>
	</g>
	<g id="XMLID_2_">
		<g>
			<path id="XMLID_126_" class="st6" d="M55.719,39.784V15.013h11.587c5.385,0,8.319,3.639,8.319,7.984
				c0,4.308-2.971,7.985-8.319,7.985h-6.314v8.802H55.719z M70.24,22.997c0-2.079-1.56-3.342-3.639-3.342h-5.608v6.685h5.608
				C68.681,26.34,70.24,25.04,70.24,22.997z"/>
			<path id="XMLID_124_" class="st6" d="M77.406,39.784V15.013h5.274v24.771H77.406z"/>
			<path id="XMLID_122_" class="st6" d="M84.164,27.417c0-7.613,5.756-12.813,13.184-12.813c5.459,0,8.616,2.971,10.361,6.053
				l-4.531,2.228c-1.04-2.005-3.268-3.603-5.831-3.603c-4.494,0-7.762,3.454-7.762,8.133c0,4.679,3.268,8.133,7.762,8.133
				c2.563,0,4.791-1.56,5.831-3.603l4.531,2.192c-1.783,3.082-4.902,6.09-10.361,6.09C89.92,40.23,84.164,35.03,84.164,27.417z"/>
			<path id="XMLID_120_" class="st6" d="M108.45,36.293l2.86-4.011c1.745,1.82,4.457,3.343,7.873,3.343
				c2.896,0,4.308-1.337,4.308-2.748c0-4.382-14.261-1.374-14.261-10.696c0-4.122,3.565-7.539,9.396-7.539
				c3.937,0,7.204,1.188,9.656,3.454l-2.934,3.863c-2.005-1.857-4.679-2.711-7.205-2.711c-2.265,0-3.528,1.003-3.528,2.488
				c0,3.936,14.224,1.299,14.224,10.547c0,4.531-3.231,7.948-9.915,7.948C114.169,40.23,110.753,38.633,108.45,36.293z"/>
			<path id="XMLID_117_" class="st6" d="M147.883,39.784l-1.523-4.197h-10.622l-1.56,4.197h-6.016l9.581-24.771h6.611l9.544,24.771
				H147.883z M141.05,20.287l-3.862,10.658h7.725L141.05,20.287z"/>
		</g>
	</g>
</g>
</svg>
